PathFileType	4	(X/Y/Z)	/Users/niels/Desktop/University/Third Semester/Perception and Action/Exam/Gymnastics Motion Tracking/Code for Gym Tracking/Analyzed Data/Webcam_Backflip/id2001_2_baseline_Sports2D/id2001_2_baseline_Sports2D_px_person00.trc
DataRate	CameraRate	NumFrames	NumMarkers	Units	OrigDataRate	OrigDataStartFrame	OrigNumFrames
29.888475836431226	29.888475836431226	9	22	m	29.888475836431226	134	269
Frame#	Time	Hip			RHip			RKnee			RAnkle			RBigToe			RSmallToe			RHeel			LHip			LKnee			LAnkle			LBigToe			LSmallToe			LHeel			Neck			Head			Nose			RShoulder			RElbow			RWrist			LShoulder			LElbow			LWrist		
		X1	Y1	Z1	X2	Y2	Z2	X3	Y3	Z3	X4	Y4	Z4	X5	Y5	Z5	X6	Y6	Z6	X7	Y7	Z7	X8	Y8	Z8	X9	Y9	Z9	X10	Y10	Z10	X11	Y11	Z11	X12	Y12	Z12	X13	Y13	Z13	X14	Y14	Z14	X15	Y15	Z15	X16	Y16	Z16	X17	Y17	Z17	X18	Y18	Z18	X19	Y19	Z19	X20	Y20	Z20	X21	Y21	Z21	X22	Y22	Z22
134	4.483333333333333	1.0079963369297584	-0.7226114777725776	0.0	1.0241776002202359	-0.7308146629179353	0.0	1.1316515335402602	-1.0574071988319738	0.0	1.3122913898321853	-1.095974234427531	0.0	1.5021662788479933	-1.1038193857046614	0.0	1.5895045159530803	-1.0968812682521576	0.0	1.3389256389980053	-1.1015674189406257	0.0	0.9824971289682153	-0.7353379332894219	0.0	1.0210840878533016	-1.0571177871252195	0.0	0.989595450453478	-1.0764118651565335	0.0	1.4169825599047348	-1.0925841531272962	0.0	1.4258959960937496	-1.08961279296875	0.0	1.2178962381723475	-1.0965452117077548	0.0	1.0333679202408352	-0.2469038602836478	0.0	1.0831639753988258	-0.05534415566927086	0.0	1.0991257874909306	-0.14859682367545918	0.0	1.009294038782125	-0.2881719838474531	0.0	1.0393160358071891	-0.5444944445446639	0.0	1.1489465014362048	-0.7577585271672717	0.0	1.049606536668593	-0.3028122175069225	0.0	1.0512252931266015	-0.5432319066264958	0.0	1.1147195032835298	-0.7471421838276215	0.0
135	4.51679104477612	1.0099810720896463	-0.721549709047513	0.0	1.0232479098081797	-0.7322219762314844	0.0	1.1026153649472776	-1.056993193006242	0.0	1.3121529525138798	-1.0959073435169335	0.0	1.5021847710362373	-1.1038317678905984	0.0	1.589572955375916	-1.0968805757497897	0.0	1.3389266641809354	-1.1015638136064358	0.0	0.9902731210421338	-0.7349694366629116	0.0	1.0234689462758995	-1.0554145022445856	0.0	0.9872586394479222	-1.0766300860383113	0.0	1.4169806216580192	-1.0925830750497303	0.0	1.4258959960937496	-1.08961279296875	0.0	1.2178948341373235	-1.0965452062511742	0.0	1.0359596729403575	-0.24446053796227868	0.0	1.0856103426762362	-0.053562600533513215	0.0	1.101678206354796	-0.1464818780388383	0.0	1.012615438081928	-0.2870663503065505	0.0	1.0445485157183663	-0.5470157978410438	0.0	1.1519201739334746	-0.7618424978786756	0.0	1.0530821495181073	-0.2998417745694817	0.0	1.057257344903574	-0.5423589439816788	0.0	1.1185053991958718	-0.7490724380392751	0.0
136	4.550248756218906	1.0110759700501524	-0.7214292186864443	0.0	1.0212933638161823	-0.7340888980605507	0.0	1.0769861327800752	-1.0565591983284552	0.0	1.3120005186342054	-1.0958793699139233	0.0	1.5022094119229212	-1.1038395853082434	0.0	1.5896131749763802	-1.0968801687888965	0.0	1.3389124226749978	-1.10156938173772	0.0	0.9984283010107031	-0.7359784523113272	0.0	1.0216354138355448	-1.0543185596237703	0.0	0.9874649296056712	-1.0766540640609772	0.0	1.416977102993837	-1.0925810578036024	0.0	1.4258959960937496	-1.08961279296875	0.0	1.2178931498544392	-1.0965453263115654	0.0	1.0389389939745544	-0.24195340362250345	0.0	1.087963161582896	-0.05156634145524329	0.0	1.1039037987822953	-0.14401969825938438	0.0	1.0147002078395777	-0.2861039600350567	0.0	1.0488449975975476	-0.5497526570641703	0.0	1.1556414540433242	-0.7651410220320111	0.0	1.0583207843812186	-0.2982001718232908	0.0	1.0637728799058808	-0.5419437003395752	0.0	1.123034271909796	-0.7519644194184871	0.0
137	4.583706467661692	1.0111744958689775	-0.7221374628928909	0.0	1.017995088923779	-0.736142872537248	0.0	1.0553319501333784	-1.056228940063482	0.0	1.3118834368280208	-1.095875009305888	0.0	1.5022299423710925	-1.1038434090780287	0.0	1.5896308932924372	-1.0968799895066117	0.0	1.3388957217142274	-1.1015772342909305	0.0	1.0068998936021623	-0.7380033893556232	0.0	1.0164588518027302	-1.0537089251427758	0.0	0.9887021375108835	-1.0765940172263655	0.0	1.4169720557317884	-1.0925780839889836	0.0	1.4258959960937496	-1.08961279296875	0.0	1.21789188759245	-1.0965456719580577	0.0	1.041929362478923	-0.2394242627716057	0.0	1.0897756809980215	-0.04906825536075166	0.0	1.1054961892006168	-0.1409204539507104	0.0	1.0154561561828277	-0.28539906669817705	0.0	1.051722903404414	-0.5523839773741185	0.0	1.1602464682903262	-0.7672760346309286	0.0	1.0646861769268727	-0.2980179702229042	0.0	1.0708320185315812	-0.5420117544160714	0.0	1.1281531558108633	-0.7552710998495308	0.0
138	4.617164179104478	1.010442007212085	-0.723158048583233	0.0	1.0134646577302344	-0.7378372242555303	0.0	1.0379512999817708	-1.0563132630601957	0.0	1.3118125395554654	-1.095881572763942	0.0	1.502243236475648	-1.1038445525298433	0.0	1.589634542266915	-1.0968799525845592	0.0	1.3388825117580876	-1.1015839110726566	0.0	1.0156217641214265	-0.7401753688184598	0.0	1.0108862345143723	-1.0537536606634168	0.0	0.9900832050997944	-1.0765187866914745	0.0	1.416966604546665	-1.0925747367005865	0.0	1.4258959960937496	-1.08961279296875	0.0	1.2178924727261378	-1.0965463381543246	0.0	1.044550521226033	-0.23687337255539692	0.0	1.0907039641773588	-0.045840080658263054	0.0	1.1062439345198707	-0.13697225148453127	0.0	1.0147699714519165	-0.2849086120129486	0.0	1.0531789680263952	-0.5547725531187229	0.0	1.1661332090721808	-0.7679739108874664	0.0	1.0713663390504207	-0.2991336245097019	0.0	1.0783594775721412	-0.5425988477604236	0.0	1.1338103164665687	-0.7585159956869194	0.0
139	4.6506218905472645	1.0093710082972123	-0.7238318934064771	0.0	1.0081842513342045	-0.7385249677748297	0.0	1.024933162045069	-1.057124198097275	0.0	1.3117798369119587	-1.0958908747344698	0.0	1.502249956376142	-1.1038442810147466	0.0	1.5896313988244415	-1.0968799843913828	0.0	1.3388743072190437	-1.1015883009574805	0.0	1.0245632519158308	-0.7414989816287999	0.0	1.0085464287955312	-1.0546988431174478	0.0	0.9912062231211634	-1.0764603563226243	0.0	1.416963737948597	-1.092572672583685	0.0	1.4258959960937496	-1.08961279296875	0.0	1.2178971506615952	-1.0965473454248211	0.0	1.0464507523250737	-0.23430014833748095	0.0	1.090495256043445	-0.04186800812199216	0.0	1.1059922624686531	-0.13212080521935415	0.0	1.0124714672909008	-0.2843962505934172	0.0	1.0535372337590396	-0.5567559721841613	0.0	1.173812075772747	-0.7669189852569462	0.0	1.0777186522353779	-0.3012092525714186	0.0	1.086044223436958	-0.5437749064359428	0.0	1.1399049566551094	-0.7614743041101778	0.0
140	4.68407960199005	1.008658750400632	-0.7238592840683931	0.0	1.0028057474967063	-0.7379868961279538	0.0	1.0163001824903994	-1.058642811504804	0.0	1.3117717249355205	-1.0958987972994048	0.0	1.5022521492638166	-1.1038434986596897	0.0	1.5896262996284856	-1.0968800359874429	0.0	1.338870382681838	-1.1015905623240823	0.0	1.0337160692242469	-0.7415579236224213	0.0	1.0122439421788842	-1.0564624439656545	0.0	0.9919463014575931	-1.0764243002640614	0.0	1.4169690061438596	-1.0925750660894964	0.0	1.4258959960937496	-1.08961279296875	0.0	1.2179086856349657	-1.0965485205517227	0.0	1.0473059577582142	-0.23171093372036175	0.0	1.088849417728065	-0.03743008285424421	0.0	1.1045874083671987	-0.12660164802505203	0.0	1.00840622892021	-0.2836223688233557	0.0	1.0532201265038463	-0.5580264708981373	0.0	1.1837000397132313	-0.7636233375483522	0.0	1.083360375355717	-0.3037630880096359	0.0	1.0934253275059347	-0.5455600944846839	0.0	1.1462873004425598	-0.7641038409021337	0.0
141	4.717537313432836	1.0089638455879673	-0.7235334881497797	0.0	0.9979320307099365	-0.7366559449391744	0.0	1.0116516373926208	-1.0605096355439254	0.0	1.3117759528082675	-1.0959040127683006	0.0	1.5022518817061041	-1.103842716525245	0.0	1.5896217689649326	-1.0968800818308304	0.0	1.3388692838590959	-1.1015913348705497	0.0	1.043052971816886	-0.7408178891761176	0.0	1.0230896179737097	-1.0586066469772868	0.0	0.9922685220234261	-1.0763995964234705	0.0	1.4169905371713012	-1.0925866935817312	0.0	1.4258959960937496	-1.08961279296875	0.0	1.2179292919359517	-1.0965493342031811	0.0	1.0468361598816285	-0.2291074488603633	0.0	1.0854598188324456	-0.03298527499221751	0.0	1.1018547758501487	-0.12090357382104344	0.0	1.002570584474279	-0.2825693740746216	0.0	1.0526826142593897	-0.5581882436437899	0.0	1.1960374338015545	-0.757434281661456	0.0	1.0879831373536024	-0.30619099460415267	0.0	1.1001138912713901	-0.5478642952565065	0.0	1.153119442039107	-0.7662961283648463	0.0
142	4.750995024875622	1.0107189272048567	-0.7234374508840858	0.0	0.9939780674679544	-0.7352277644386277	0.0	1.009877853759306	-1.0622877552957526	0.0	1.3117841338214955	-1.0959067035000374	0.0	1.5022506706654901	-1.1038421455186356	0.0	1.5896186954608689	-1.096880112930009	0.0	1.3388696479813051	-1.101591284380347	0.0	1.0525951367177413	-0.7401577238287578	0.0	1.0408523105005398	-1.0606513444144732	0.0	0.9921004945911237	-1.0763659574211444	0.0	1.417037391033767	-1.0926130900180746	0.0	1.4258959960937496	-1.08961279296875	0.0	1.2179584042907476	-1.096548740360603	0.0	1.0448568101894395	-0.22650882227624702	0.0	1.0802473028938888	-0.028965957465490015	0.0	1.0976628659075587	-0.115487237393672	0.0	0.9951987854229485	-0.2814617638608569	0.0	1.0524031637996498	-0.556790416567624	0.0	1.2108272699278497	-0.7476110547517271	0.0	1.0911968995850534	-0.30791487310689	0.0	1.105972452535348	-0.5504025982485697	0.0	1.16126780623752	-0.7674085650968661	0.0
